<?xml version="1.0"?>
<svg xmlns="http://www.w3.org/2000/svg" xmlns:xlink="http://www.w3.org/1999/xlink" xmlns:svgjs="http://svgjs.com/svgjs" version="1.1" width="512" height="512" x="0" y="0" viewBox="0 0 512 512" style="enable-background:new 0 0 512 512" xml:space="preserve" class=""><g><g xmlns="http://www.w3.org/2000/svg"><g fill="#eae7ea"><path d="m26.062 347-.062 30h460v-30z" fill="#ffffff" data-original="#eae7ea" style="" class=""/><path d="m65.607 391.393-29.394-29.393 29.394-29.394c5.857-5.857 5.857-15.355 0-21.213s-15.355-5.858-21.213 0l-40 40c-2.929 2.929-4.394 6.768-4.394 10.607s1.465 7.678 4.394 10.606l40 40c5.857 5.858 15.355 5.858 21.213 0 5.857-5.857 5.857-15.355 0-21.213z" fill="#ffffff" data-original="#eae7ea" style="" class=""/><path d="m507.607 372.606c5.857-5.857 5.857-15.355 0-21.213l-40-40c-5.857-5.858-15.355-5.858-21.213 0-5.857 5.857-5.857 15.355 0 21.213l29.393 29.394-29.394 29.394c-2.928 2.928-4.393 6.767-4.393 10.606s1.465 7.678 4.394 10.606c5.857 5.858 15.355 5.858 21.213 0z" fill="#ffffff" data-original="#eae7ea" style="" class=""/></g><path d="m26 362h460v15h-460z" fill="#cacacc" data-original="#d5d3ea" style="" class=""/><path d="m65.607 391.393-29.394-29.393h-36.213c0 3.839 1.465 7.678 4.394 10.606l40 40c5.857 5.858 15.355 5.858 21.213 0 5.857-5.857 5.857-15.355 0-21.213z" fill="#cacacc" data-original="#d5d3ea" style="" class=""/><path d="m442 402c0 3.839 1.465 7.678 4.394 10.606 5.857 5.858 15.355 5.858 21.213 0l40-40c2.928-2.928 4.393-6.767 4.393-10.606h-36.212l-29.394 29.394c-2.929 2.928-4.394 6.767-4.394 10.606z" fill="#cacacc" data-original="#d5d3ea" style="" class=""/><path d="m497 0c-8.284 0-15 6.716-15 15 0 141.71-115.29 257-257 257-8.284 0-15 6.716-15 15s6.716 15 15 15c76.66 0 148.732-29.854 202.939-84.061s84.061-126.279 84.061-202.939c0-8.284-6.716-15-15-15z" fill="#02daed" data-original="#00cb75" style="" class=""/><path d="m143.1 487.3c7.3-.501 14.677-.192 21.9.991v-460.887c-6.005-.615-11.88-1.804-17.227-3.254-4.258-1.155-8.715-2.599-12.773-4.691v468.771c2.745-.448 5.471-.75 8.1-.93z" fill="#ffffff" data-original="#eae7ea" style="" class=""/><path d="m165 27.404c-5.19-.532-10.261-1.506-15-2.693v462.369c5.023.01 10.048.4 15 1.212z" fill="#cacacc" data-original="#d5d3ea" style="" class=""/><path d="m179.393 446.394-29.393 29.393-29.394-29.394c-5.857-5.857-15.355-5.857-21.213 0s-5.858 15.355 0 21.213l40 40c2.929 2.929 6.768 4.394 10.607 4.394s7.678-1.465 10.606-4.394l40-40c5.858-5.857 5.858-15.355 0-21.213-5.857-5.857-15.355-5.857-21.213.001z" fill="#ffffff" data-original="#eae7ea" style="" class=""/><path d="m160.606 4.394c-5.857-5.857-15.355-5.857-21.213 0l-40 40c-5.858 5.857-5.858 15.355 0 21.213 5.857 5.857 15.355 5.857 21.213 0l29.394-29.394 29.394 29.394c2.928 2.928 6.767 4.393 10.606 4.393s7.678-1.465 10.606-4.394c5.858-5.857 5.858-15.355 0-21.213z" fill="#ffffff" data-original="#eae7ea" style="" class=""/><path d="m179.393 446.394-29.393 29.393v36.213c3.839 0 7.678-1.465 10.606-4.394l40-40c5.858-5.857 5.858-15.355 0-21.213-5.857-5.857-15.355-5.857-21.213.001z" fill="#cacacc" data-original="#d5d3ea" style="" class=""/><path d="m190 70c3.839 0 7.678-1.465 10.606-4.394 5.858-5.857 5.858-15.355 0-21.213l-40-40c-2.928-2.928-6.767-4.393-10.606-4.393v36.212l29.394 29.394c2.928 2.929 6.767 4.394 10.606 4.394z" fill="#cacacc" data-original="#d5d3ea" style="" class=""/></g></g></svg>
